<svg xmlns:xlink="http://www.w3.org/1999/xlink" viewBox="0 0 25 24" fill="none" xmlns="http://www.w3.org/2000/svg" width="25"  height="24" ><path fill-rule="evenodd" clip-rule="evenodd" d="M23.367 4.135c.356.943.545 1.941.559 2.949.074 1.267.074 1.682.077 4.89v.045c0 3.25-.017 3.656-.075 4.936a8.75 8.75 0 0 1-.558 2.91 6.14 6.14 0 0 1-3.51 3.503 8.798 8.798 0 0 1-2.913.558c-1.273.074-1.69.074-4.945.074-3.255 0-3.662-.017-4.946-.075a8.79 8.79 0 0 1-2.912-.598 6.147 6.147 0 0 1-3.51-3.502 8.761 8.761 0 0 1-.56-2.91C0 15.643 0 15.228 0 11.979c0-3.25.017-3.655.075-4.937a8.707 8.707 0 0 1 .558-2.907A6.129 6.129 0 0 1 4.143.632 8.82 8.82 0 0 1 7.055.073C8.328 0 8.745 0 12 0c3.255 0 3.662.016 4.944.073a8.82 8.82 0 0 1 2.914.559 6.145 6.145 0 0 1 3.51 3.503ZM5.83 11.972a6.155 6.155 0 0 0 6.162 6.151 6.168 6.168 0 0 0 4.357-1.802 6.146 6.146 0 0 0 0-8.698 6.168 6.168 0 0 0-4.357-1.802 6.155 6.155 0 0 0-6.162 6.151Zm11.133-6.378c0 .793.64 1.434 1.436 1.434a1.434 1.434 0 1 0-1.016-2.448 1.435 1.435 0 0 0-.42 1.014Zm-.968 6.378a4 4 0 0 1-4.003 3.996 4 4 0 0 1-4.003-3.996 4 4 0 0 1 4.003-3.996 4 4 0 0 1 4.003 3.996Z" fill="#757575"></path></svg>